name rise32.9588peak41.5061fall63.4684.mot
datacolumns 19
datarows 15
range 14.05161300000000 14.07494800000000
endheader
time	ground_force1_vx	ground_force1_vy	ground_force1_vz	ground_force1_px	ground_force1_py	ground_force1_pz	ground_force2_vx	ground_force2_vy	ground_force2_vz	ground_force2_px	ground_force2_py	ground_force2_pz	ground_torque1_x	ground_torque1_y	ground_torque1_z	ground_torque2_x	ground_torque2_y	ground_torque2_z	
14.05161300000000	6.42330500000000	697.00351400000000	38.39008600000000	0.17787600000000	0.00000000000000	0.11070300000000	0.00000000000000	0.00000000000000	0.00000000000000	0.00000000000000	0.00000000000000	0.00000000000000	0.00000000000000	11.53406900000000	0.00000000000000	0.00000000000000	0.00000000000000	0.00000000000000	
14.05327800000000	6.05969000000000	697.96703700000000	38.46419400000000	0.17688500000000	0.00000000000000	0.11075300000000	0.00000000000000	0.00000000000000	0.00000000000000	0.00000000000000	0.00000000000000	0.00000000000000	0.00000000000000	11.60445000000000	0.00000000000000	0.00000000000000	0.00000000000000	0.00000000000000	
14.05494500000000	5.68550600000000	698.98058200000003	38.53995700000000	0.17588600000000	0.00000000000000	0.11080100000000	0.00000000000000	0.00000000000000	0.00000000000000	0.00000000000000	0.00000000000000	0.00000000000000	0.00000000000000	11.67815000000000	0.00000000000000	0.00000000000000	0.00000000000000	0.00000000000000	
14.05660900000000	5.30050900000000	700.04301299999997	38.61717000000000	0.17488100000000	0.00000000000000	0.11084700000000	0.00000000000000	0.00000000000000	0.00000000000000	0.00000000000000	0.00000000000000	0.00000000000000	0.00000000000000	11.75509300000000	0.00000000000000	0.00000000000000	0.00000000000000	0.00000000000000	
14.05828200000000	4.90448300000000	701.15324599999997	38.69564200000000	0.17387000000000	0.00000000000000	0.11089200000000	0.00000000000000	0.00000000000000	0.00000000000000	0.00000000000000	0.00000000000000	0.00000000000000	0.00000000000000	11.83519600000000	0.00000000000000	0.00000000000000	0.00000000000000	0.00000000000000	
14.05994700000000	4.49724100000000	702.31025399999999	38.77519800000000	0.17285300000000	0.00000000000000	0.11093500000000	0.00000000000000	0.00000000000000	0.00000000000000	0.00000000000000	0.00000000000000	0.00000000000000	0.00000000000000	11.91837600000000	0.00000000000000	0.00000000000000	0.00000000000000	0.00000000000000	
14.06161400000000	4.07862700000000	703.51306099999999	38.85567900000000	0.17183000000000	0.00000000000000	0.11097500000000	0.00000000000000	0.00000000000000	0.00000000000000	0.00000000000000	0.00000000000000	0.00000000000000	0.00000000000000	12.00454500000000	0.00000000000000	0.00000000000000	0.00000000000000	0.00000000000000	
14.06328300000000	3.64851800000000	704.76075300000002	38.93694300000000	0.17080200000000	0.00000000000000	0.11101400000000	0.00000000000000	0.00000000000000	0.00000000000000	0.00000000000000	0.00000000000000	0.00000000000000	0.00000000000000	12.09361100000000	0.00000000000000	0.00000000000000	0.00000000000000	0.00000000000000	
14.06494500000000	3.20682100000000	706.05246799999998	39.01886300000000	0.16976900000000	0.00000000000000	0.11105100000000	0.00000000000000	0.00000000000000	0.00000000000000	0.00000000000000	0.00000000000000	0.00000000000000	0.00000000000000	12.18547700000000	0.00000000000000	0.00000000000000	0.00000000000000	0.00000000000000	
14.06661900000000	2.75347800000000	707.38740499999994	39.10133000000000	0.16873200000000	0.00000000000000	0.11108600000000	0.00000000000000	0.00000000000000	0.00000000000000	0.00000000000000	0.00000000000000	0.00000000000000	0.00000000000000	12.28004200000000	0.00000000000000	0.00000000000000	0.00000000000000	0.00000000000000	
14.06828300000000	2.28845900000000	708.76481799999999	39.18425100000000	0.16769000000000	0.00000000000000	0.11111900000000	0.00000000000000	0.00000000000000	0.00000000000000	0.00000000000000	0.00000000000000	0.00000000000000	0.00000000000000	12.37720300000000	0.00000000000000	0.00000000000000	0.00000000000000	0.00000000000000	
14.06995200000000	1.81177100000000	710.18401300000005	39.26755000000000	0.16664400000000	0.00000000000000	0.11114900000000	0.00000000000000	0.00000000000000	0.00000000000000	0.00000000000000	0.00000000000000	0.00000000000000	0.00000000000000	12.47685000000000	0.00000000000000	0.00000000000000	0.00000000000000	0.00000000000000	
14.07161400000000	1.32345200000000	711.64435100000003	39.35116800000000	0.16559500000000	0.00000000000000	0.11117800000000	0.00000000000000	0.00000000000000	0.00000000000000	0.00000000000000	0.00000000000000	0.00000000000000	0.00000000000000	12.57887000000000	0.00000000000000	0.00000000000000	0.00000000000000	0.00000000000000	
14.07328000000000	0.82357400000000	713.14523899999995	39.43505900000000	0.16454200000000	0.00000000000000	0.11120400000000	0.00000000000000	0.00000000000000	0.00000000000000	0.00000000000000	0.00000000000000	0.00000000000000	0.00000000000000	12.68314600000000	0.00000000000000	0.00000000000000	0.00000000000000	0.00000000000000	
14.07494800000000	0.31224000000000	714.68613200000004	39.51919800000000	0.16348600000000	0.00000000000000	0.11122800000000	0.00000000000000	0.00000000000000	0.00000000000000	0.00000000000000	0.00000000000000	0.00000000000000	0.00000000000000	12.78955400000000	0.00000000000000	0.00000000000000	0.00000000000000	0.00000000000000	
